<svg width="350" height="150" viewBox="0 0 350 150" fill="none" xmlns="http://www.w3.org/2000/svg">
<path d="M27.912 44.456L28.68 58.536C28.68 63.656 26.4187 67.7093 21.896 70.696C23.688 71.72 25.0533 73.4267 25.992 75.816C26.9307 78.2053 27.4 80.5093 27.4 82.728C27.4 84.9467 26.9307 88.104 25.992 92.2C25.1387 96.2107 24.712 99.3253 24.712 101.544C24.712 107.347 26.2907 111.528 29.448 114.088L30.856 114.856C32.392 115.709 33.16 116.435 33.16 117.032C33.16 117.715 31.9653 118.056 29.576 118.056C25.9067 118.056 22.664 116.221 19.848 112.552C17.1173 108.968 15.752 104.232 15.752 98.344C15.752 96.6373 16.2213 94.0773 17.16 90.664C18.0987 87.2507 18.568 84.7333 18.568 83.112C18.568 81.4907 18.312 79.656 17.8 77.608C17.288 75.56 16.776 74.2373 16.264 73.64C14.8133 73.896 13.4907 74.024 12.296 74.024C10.8453 74.024 10.12 73.256 10.12 71.72C10.12 70.952 10.4187 70.1413 11.016 69.288C11.6133 68.4347 12.2533 68.008 12.936 68.008L14.984 68.264C16.264 68.264 17.16 67.88 17.672 67.112C19.3787 64.808 20.232 62.12 20.232 59.048L18.824 46.76C18.824 41.384 20.232 36.5627 23.048 32.296C25.864 28.0293 29.5333 25.896 34.056 25.896C36.4453 25.896 37.64 26.3227 37.64 27.176C37.64 27.688 37.0427 28.2427 35.848 28.84C34.6533 29.352 33.928 29.6933 33.672 29.864C29.832 32.424 27.912 37.288 27.912 44.456ZM321.758 99.496L320.99 85.416C320.99 79.1867 323.251 74.5787 327.774 71.592C324.105 69.4587 322.27 65.8747 322.27 60.84C322.27 58.8773 322.697 55.8907 323.55 51.88C324.489 47.784 324.958 44.6267 324.958 42.408C324.958 36.6053 323.379 32.424 320.222 29.864L318.814 29.096C317.278 28.2427 316.51 27.5173 316.51 26.92C316.51 26.2373 317.705 25.896 320.094 25.896C323.763 25.896 326.963 27.7307 329.694 31.4C332.51 34.984 333.918 39.72 333.918 45.608C333.918 47.3147 333.449 49.8747 332.51 53.288C331.571 56.7013 331.102 59.688 331.102 62.248C331.102 64.808 331.87 66.9413 333.406 68.648C334.857 68.392 336.179 68.264 337.374 68.264C338.825 68.264 339.55 69.032 339.55 70.568C339.55 71.336 339.251 72.1467 338.654 73C338.057 73.8533 337.417 74.28 336.734 74.28C336.734 74.28 336.051 74.1947 334.686 74.024C333.406 74.024 332.51 74.408 331.998 75.176C330.291 77.48 329.438 80.7227 329.438 84.904L330.846 97.192C330.846 102.568 329.438 107.389 326.622 111.656C323.806 115.923 320.137 118.056 315.614 118.056C313.225 118.056 312.03 117.629 312.03 116.776C312.03 116.264 312.627 115.709 313.822 115.112C315.017 114.6 315.742 114.259 315.998 114.088C319.838 111.528 321.758 106.664 321.758 99.496Z" fill="#656565"/>
<path d="M97.022 48.552C97.79 48.9787 98.174 49.448 98.174 49.96C98.174 50.472 97.534 51.1973 96.254 52.136C94.974 52.9893 93.822 53.416 92.798 53.416C89.982 53.416 86.5687 51.88 82.558 48.808C78.6327 45.6507 75.4753 40.744 73.086 34.088C70.8673 39.8053 67.7527 44.6267 63.742 48.552C59.8167 52.4773 56.9153 54.44 55.038 54.44C52.222 54.44 50.686 53.7147 50.43 52.264C50.43 51.6667 51.07 51.0267 52.35 50.344C53.7153 49.576 55.166 48.552 56.702 47.272C58.238 45.992 59.902 44.4133 61.694 42.536C63.486 40.5733 64.6807 39.08 65.278 38.056C65.8753 37.032 66.686 35.4533 67.71 33.32C68.8193 31.1867 69.7153 29.5227 70.398 28.328C71.166 27.048 72.1473 25.9387 73.342 25C74.622 24.0613 75.7313 23.592 76.67 23.592C78.0353 23.592 79.0593 24.9147 79.742 27.56C80.51 30.2053 81.15 32.168 81.662 33.448C82.8567 36.776 85.8007 40.488 90.494 44.584C91.518 45.5227 93.694 46.8453 97.022 48.552Z" fill="#038100"/>
<path d="M126.991 105.64C122.212 105.64 118.415 103.848 115.599 100.264C112.783 96.5947 111.375 92.456 111.375 87.848C111.375 78.5467 113.338 71.5067 117.263 66.728C121.188 61.9493 126.266 59.56 132.495 59.56C135.396 59.56 137.786 60.3707 139.663 61.992C141.54 63.528 142.479 65.6613 142.479 68.392C142.479 73.512 140.303 77.8213 135.951 81.32C131.684 84.7333 126.436 86.5253 120.207 86.696C120.548 90.024 121.658 92.9253 123.535 95.4C125.498 97.7893 127.759 98.984 130.319 98.984C132.879 98.984 135.183 98.3867 137.231 97.192C139.279 95.9973 141.156 94.2907 142.863 92.072C146.447 87.3787 149.519 82.0453 152.079 76.072C152.762 74.536 153.274 73.4267 153.615 72.744C154.042 72.0613 154.468 71.72 154.895 71.72C155.407 71.72 155.663 72.0613 155.663 72.744C155.663 77.0107 153.06 83.4107 147.855 91.944C142.223 101.075 135.268 105.64 126.991 105.64ZM120.207 83.624C125.242 82.7707 128.911 81.1493 131.215 78.76C133.604 76.3707 134.799 73.256 134.799 69.416C134.799 65.576 133.562 63.656 131.087 63.656C128.1 63.656 125.583 65.7467 123.535 69.928C121.487 74.024 120.378 78.5893 120.207 83.624ZM134.159 39.848C134.159 39.1653 133.946 38.5253 133.519 37.928C133.092 37.2453 132.879 36.6907 132.879 36.264C132.879 35.8373 133.604 35.24 135.055 34.472C136.591 33.704 137.828 33.32 138.767 33.32C139.706 33.32 140.602 33.832 141.455 34.856C142.394 35.88 142.863 37.3307 142.863 39.208C142.863 42.1093 141.028 44.9253 137.359 47.656C135.652 48.936 133.647 50.0453 131.343 50.984C129.124 51.9227 127.46 52.392 126.351 52.392C125.327 52.392 124.815 52.008 124.815 51.24C124.815 50.8133 125.412 50.2587 126.607 49.576C131.556 47.1867 134.074 43.944 134.159 39.848ZM179.595 98.472C182.155 98.472 186.251 92.2427 191.883 79.784C192.566 78.3333 193.12 77.096 193.547 76.072C193.974 74.9627 194.358 74.1093 194.699 73.512C195.211 72.3173 195.68 71.72 196.107 71.72C196.619 71.72 196.875 72.0613 196.875 72.744C196.875 75.2187 195.595 79.144 193.035 84.52C186.464 98.6 181.131 105.64 177.035 105.64C173.963 105.64 171.958 104.915 171.019 103.464C170.08 101.928 168.16 98.0027 165.259 91.688C162.699 96.2107 160.48 99.6667 158.603 102.056C156.811 104.445 155.147 105.64 153.611 105.64C152.075 105.64 150.88 105.469 150.027 105.128C149.174 104.787 148.662 104.445 148.491 104.104C148.235 103.677 148.107 103.165 148.107 102.568C148.107 101.971 148.662 101.16 149.771 100.136C154.55 95.784 158.816 91.0907 162.571 86.056C161.376 83.752 159.798 81.2347 157.835 78.504C155.872 75.688 154.251 73.384 152.971 71.592C151.776 69.8 151.179 68.1787 151.179 66.728C151.179 65.192 151.734 63.3147 152.843 61.096C154.038 58.792 155.403 57.64 156.939 57.64C158.56 57.64 159.712 58.408 160.395 59.944C161.163 61.48 161.547 63.0587 161.547 64.68C162.315 65.96 164.534 70.3973 168.203 77.992C169.483 75.944 171.062 73.1707 172.939 69.672C174.816 66.088 176.267 63.528 177.291 61.992C178.315 60.3707 179.168 59.56 179.851 59.56C181.387 59.56 182.368 59.816 182.795 60.328C183.307 60.84 183.563 61.608 183.563 62.632C183.563 63.656 183.136 64.6373 182.283 65.576C181.515 66.5147 180.619 67.4107 179.595 68.264C178.571 69.032 177.547 70.0987 176.523 71.464C175.584 72.8293 173.536 76.456 170.379 82.344C175.584 93.096 178.656 98.472 179.595 98.472ZM194.111 42.408C194.111 40.872 194.922 39.5493 196.543 38.44C198.164 37.3307 199.615 36.776 200.895 36.776C203.199 36.776 204.351 38.0987 204.351 40.744C204.351 43.3893 203.668 45.6933 202.303 47.656C200.938 49.5333 199.018 50.472 196.543 50.472C194.922 50.472 194.111 47.784 194.111 42.408ZM197.823 105.64C194.495 105.64 191.978 104.957 190.271 103.592C189.674 102.995 189.375 100.861 189.375 97.192C189.375 93.5227 189.631 87.4213 190.143 78.888C190.74 70.2693 191.252 65.6187 191.679 64.936C192.106 64.2533 193.428 62.9733 195.647 61.096C197.866 59.2187 199.572 58.28 200.767 58.28C202.047 58.28 202.687 59.9013 202.687 63.144C202.687 63.9973 202.431 65.6613 201.919 68.136C201.492 70.6107 200.98 72.4027 200.383 73.512C199.274 76.328 198.719 83.7093 198.719 95.656C198.719 97.96 198.975 99.112 199.487 99.112C200.938 99.0267 202.943 97.2347 205.503 93.736C208.063 90.152 210.58 85.5867 213.055 80.04C215.615 74.4933 217.151 71.72 217.663 71.72C218.26 71.72 218.559 72.0613 218.559 72.744C218.559 75.1333 217.322 78.9307 214.847 84.136C208.106 98.472 202.431 105.64 197.823 105.64ZM240.422 84.136C233.681 98.472 227.963 105.64 223.27 105.64C218.662 105.64 215.931 105.085 215.078 103.976C214.31 102.867 213.926 99.1973 213.926 92.968C213.926 86.7387 214.523 77.736 215.718 65.96C211.451 65.1067 209.19 63.3573 208.934 60.712C208.934 59.3467 209.83 58.664 211.622 58.664C213.414 58.664 214.993 59.0053 216.358 59.688C217.126 53.544 218.022 47.3147 219.046 41C219.302 39.3787 220.113 37.8427 221.478 36.392C222.843 34.9413 224.166 34.216 225.446 34.216C226.555 34.216 227.11 35.9653 227.11 39.464C227.11 41.0853 226.513 48.552 225.318 61.864C227.622 61.4373 230.139 60.584 232.87 59.304C235.686 58.024 237.35 57.384 237.862 57.384C239.398 57.384 240.166 57.8533 240.166 58.792C240.251 59.6453 238.673 60.84 235.43 62.376C232.187 63.8267 228.689 64.936 224.934 65.704C223.91 78.1627 223.398 87.592 223.398 93.992C223.398 97.4053 223.91 99.112 224.934 99.112C226.47 99.0267 228.518 97.2347 231.078 93.736C233.638 90.2373 236.155 85.7147 238.63 80.168C241.19 74.536 242.726 71.72 243.238 71.72C243.835 71.72 244.134 72.0613 244.134 72.744C244.134 75.1333 242.897 78.9307 240.422 84.136ZM277.564 77.224C280.977 76.1147 283.324 75.176 284.604 74.408C285.969 73.5547 286.993 72.9147 287.676 72.488L289.212 71.592C289.639 71.336 289.98 71.208 290.236 71.208C290.919 71.208 291.26 71.592 291.26 72.36C291.26 73.128 289.937 74.4933 287.292 76.456C284.647 78.3333 281.361 80.04 277.436 81.576C276.839 88.744 274.577 94.5467 270.652 98.984C266.727 103.421 261.137 105.64 253.884 105.64C248.593 105.64 244.54 103.549 241.724 99.368C238.908 95.1013 237.5 90.152 237.5 84.52C237.5 78.8027 239.164 73.4267 242.492 68.392C245.905 63.3573 250.257 60.84 255.548 60.84C257.937 59.1333 260.753 58.28 263.996 58.28C267.324 58.28 270.396 60.0293 273.212 63.528C276.028 67.0267 277.479 71.592 277.564 77.224ZM269.244 83.752L264.636 84.008C260.711 84.008 257.383 82.856 254.652 80.552C251.921 78.1627 250.556 75.56 250.556 72.744C250.556 69.928 251.025 67.496 251.964 65.448C248.295 68.3493 246.46 74.0667 246.46 82.6C246.46 86.696 247.313 90.6213 249.02 94.376C250.727 98.0453 253.415 99.88 257.084 99.88C260.753 99.88 263.612 98.344 265.66 95.272C267.708 92.1147 268.903 88.2747 269.244 83.752ZM261.308 62.504C259.943 62.504 258.876 63.144 258.108 64.424C257.34 65.6187 256.956 66.9413 256.956 68.392C256.956 71.5493 258.023 74.1093 260.156 76.072C262.375 78.0347 264.935 79.016 267.836 79.016H269.372C269.201 74.8347 268.476 71.0373 267.196 67.624C266.001 64.2107 264.039 62.504 261.308 62.504ZM303.069 65.832L303.325 63.912C303.325 62.376 302.429 61.608 300.637 61.608C298.93 61.608 297.266 62.76 295.645 65.064C294.024 67.2827 293.213 69.1173 293.213 70.568C293.213 72.0187 293.298 73.1707 293.469 74.024C293.64 74.8773 293.81 75.6027 293.981 76.2C294.237 76.712 294.621 77.352 295.133 78.12C295.645 78.888 296.029 79.4427 296.285 79.784L297.693 81.576C298.29 82.4293 298.717 82.984 298.973 83.24C303.41 79.5707 308.701 75.4747 314.845 70.952C315.186 70.696 315.57 70.568 315.997 70.568C316.85 70.568 317.277 71.0373 317.277 71.976C317.277 72.9147 316.893 73.64 316.125 74.152C310.664 77.6507 305.501 81.448 300.637 85.544C302.514 88.2747 303.453 91.2613 303.453 94.504C303.453 97.7467 302.216 100.52 299.741 102.824C297.266 105.128 294.109 106.28 290.269 106.28C286.429 106.28 284.509 104.445 284.509 100.776C284.509 98.1307 287.325 94.0773 292.957 88.616C292.53 88.104 291.762 87.2933 290.653 86.184C289.544 84.9893 288.69 84.0507 288.093 83.368C287.581 82.6853 286.941 81.7893 286.173 80.68C284.808 78.5467 284.125 76.2427 284.125 73.768C284.125 68.7333 285.746 64.68 288.989 61.608C292.232 58.4507 295.688 56.872 299.357 56.872C301.661 56.872 303.453 57.512 304.733 58.792C306.013 59.9867 306.653 61.224 306.653 62.504C306.653 65.4053 305.97 66.856 304.605 66.856C303.581 66.856 303.069 66.5147 303.069 65.832ZM294.877 91.048C291.464 94.4613 289.757 97.2347 289.757 99.368C289.757 101.416 290.824 102.44 292.957 102.44C294.237 102.44 295.304 101.928 296.157 100.904C298.034 98.344 297.608 95.0587 294.877 91.048Z" fill="white"/>
</svg>
